<svg width="512" height="512" viewBox="0 0 512 512" xmlns="http://www.w3.org/2000/svg">
  <defs>
    <linearGradient id="bg" x1="0" y1="0" x2="0" y2="1">
      <stop offset="0%" stop-color="#234C86"/>
      <stop offset="100%" stop-color="#152F57"/>
    </linearGradient>
    <linearGradient id="gold" x1="0" y1="0" x2="0" y2="1">
      <stop offset="0%" stop-color="#FFD873"/>
      <stop offset="100%" stop-color="#F0A300"/>
    </linearGradient>
  </defs>
  <rect width="512" height="512" rx="112" fill="url(#bg)"/>
  <!-- shield -->
  <path d="M256 118 L358 152 V246 C358 322 308 372 256 396 C204 372 154 322 154 246 V152 Z"
        fill="#FBF3E4" stroke="url(#gold)" stroke-width="12"/>
  <!-- cross -->
  <rect x="234" y="168" width="44" height="150" rx="10" fill="url(#gold)"/>
  <rect x="196" y="206" width="120" height="44" rx="10" fill="url(#gold)"/>
  <!-- crown on top -->
  <g transform="translate(256 74)">
    <path d="M-64 34 L-64 -6 L-30 18 L0 -34 L30 18 L64 -6 L64 34 Z" fill="url(#gold)" stroke="#C97A00" stroke-width="4" stroke-linejoin="round"/>
    <circle cx="-64" cy="-10" r="10" fill="url(#gold)"/>
    <circle cx="0" cy="-38" r="12" fill="url(#gold)"/>
    <circle cx="64" cy="-10" r="10" fill="url(#gold)"/>
  </g>
</svg>
